<svg xmlns="http://www.w3.org/2000/svg" viewBox="0 0 2000 2000"><rect width="1600" height="1600" x="308.195" y="198.5" fill="#6556ff" opacity=".2" rx="799.999"/><polygon fill="#fff" points="760.881 1374.005 551.346 1374.005 583.734 1053.148 728.493 1053.148 760.881 1374.005"/><path fill="#090817" d="M760.883,1378H551.348a4,4,0,0,1-3.981-4.4l32.387-320.856a4,4,0,0,1,3.98-3.6H728.492a4,4,0,0,1,3.981,3.6l32.39,320.856a4,4,0,0,1-3.98,4.4Zm-205.11-8H756.457l-31.582-312.856H587.352Z"/><rect width="941.557" height="616.842" x="185.335" y="630.388" fill="#fff" rx="49.627"/><path fill="#090817" d="M1077.266,1251.23h-842.3a53.687,53.687,0,0,1-53.625-53.628V680.016a53.687,53.687,0,0,1,53.625-53.629h842.305a53.687,53.687,0,0,1,53.625,53.629V1197.6A53.687,53.687,0,0,1,1077.266,1251.23Zm-842.3-616.843a45.679,45.679,0,0,0-45.625,45.629V1197.6a45.679,45.679,0,0,0,45.625,45.628h842.305a45.679,45.679,0,0,0,45.625-45.628V680.016a45.679,45.679,0,0,0-45.625-45.629Z"/><rect width="850.825" height="526.194" x="230.701" y="680.506" fill="#fff" rx="29.667"/><path fill="#090817" d="M1051.859,1210.7H260.367a33.7,33.7,0,0,1-33.668-33.664V710.172A33.7,33.7,0,0,1,260.367,676.5h791.492a33.7,33.7,0,0,1,33.668,33.668v466.863A33.7,33.7,0,0,1,1051.859,1210.7ZM260.367,684.5A25.7,25.7,0,0,0,234.7,710.172v466.863a25.7,25.7,0,0,0,25.668,25.664h791.492a25.694,25.694,0,0,0,25.668-25.664V710.172a25.7,25.7,0,0,0-25.668-25.668Z"/><rect width="1271.657" height="34.592" x="91.805" y="1393.625" fill="#080717" rx="5.336"/><rect width="742.366" height="39.24" x="284.93" y="1354.385" fill="#fff" rx="19.62"/><path fill="#090817" d="M1007.676,1397.625H304.551a23.619,23.619,0,1,1,0-47.238h703.125a23.619,23.619,0,1,1,0,47.238Zm-703.125-39.238a15.619,15.619,0,1,0,0,31.238h703.125a15.619,15.619,0,1,0,0-31.238Z"/><path fill="#fff" d="M529.287,700.305a206.07,206.07,0,0,0,40.367-122.8c0-114.337-92.689-207.026-207.027-207.026S155.6,463.172,155.6,577.509,248.29,784.535,362.627,784.535a206,206,0,0,0,119.4-37.949L559.7,806.762Z"/><path fill="#090817" d="M559.7,810.762a4.008,4.008,0,0,1-2.449-.836L481.9,751.551a209.566,209.566,0,0,1-119.269,36.984c-116.359,0-211.027-94.668-211.027-211.027S246.27,366.484,362.629,366.484s211.023,94.664,211.023,211.024a209.293,209.293,0,0,1-39.984,123.578l29.883,104.578a4,4,0,0,1-3.848,5.1Zm-77.68-68.176a4,4,0,0,1,2.45.836l68.031,52.7L525.438,701.4a4.006,4.006,0,0,1,.628-3.472,201.37,201.37,0,0,0,39.586-120.422c0-111.949-91.074-203.024-203.023-203.024S159.6,465.559,159.6,577.508,250.68,780.535,362.629,780.535A201.657,201.657,0,0,0,479.715,743.32,3.971,3.971,0,0,1,482.023,742.586Z"/><path fill="#080717" d="M443.751,617.448a81.124,81.124,0,0,0-81.124-81.123h0A81.123,81.123,0,0,0,281.5,617.448v79.461H443.751Z"/><circle cx="362.627" cy="502.303" r="63.71" fill="#080717"/><rect width="392.523" height="239.754" x="459.852" y="918.747" fill="#080717" rx="9.369" transform="rotate(-180 656.114 1038.624)"/><polygon fill="#fff" points="656.114 800.913 753.293 879.583 753.293 1151.349 558.934 1151.349 558.934 879.583 656.114 800.913"/><path fill="#090817" d="M753.293,1155.348H558.934a4,4,0,0,1-4-4V879.582a4,4,0,0,1,1.484-3.109l97.18-78.668a4,4,0,0,1,5.031,0l97.18,78.668a4.007,4.007,0,0,1,1.484,3.109v271.766A4,4,0,0,1,753.293,1155.348Zm-190.359-8H749.293V881.492l-93.18-75.433-93.179,75.433Z"/><path fill="#080717" d="M635.442,1024.321h41.344a11,11,0,0,1,11,11v95.094a24,24,0,0,1-24,24H649.442a25,25,0,0,1-25-25v-94.094A11,11,0,0,1,635.442,1024.321Z" transform="rotate(-180 656.114 1089.368)"/><circle cx="656.114" cy="891.843" r="36.78" fill="#fff"/><path fill="#090817" d="M656.113,932.625A40.782,40.782,0,1,1,696.9,891.844,40.826,40.826,0,0,1,656.113,932.625Zm0-73.563A32.782,32.782,0,1,0,688.9,891.844,32.821,32.821,0,0,0,656.113,859.062Z"/><polygon fill="#fff" points="656.114 796.361 656.114 717.691 725.561 762.645 656.114 796.361"/><path fill="#090817" d="M656.113,800.359a4,4,0,0,1-4-4V717.691a4,4,0,0,1,6.172-3.359l69.449,44.953a4,4,0,0,1-.425,6.957l-69.45,33.715A3.958,3.958,0,0,1,656.113,800.359Zm4-75.312v64.926l57.317-27.828Z"/><g><rect width="281.27" height="212.204" x="456.796" y="1500.065" fill="#fff" rx="18.907" transform="rotate(-9.78 597.446 1606.197)"/><path fill="#090817" d="M492.273,1735.684a22.944,22.944,0,0,1-22.562-19.02l-29.625-171.855a22.93,22.93,0,0,1,18.684-26.465l239.918-41.356a22.905,22.905,0,0,1,26.464,18.684l29.621,171.851a22.932,22.932,0,0,1-18.679,26.469h0l-239.918,41.356A22.994,22.994,0,0,1,492.273,1735.684Zm210.336-251.032a15.008,15.008,0,0,0-2.562.219l-239.918,41.356a14.925,14.925,0,0,0-12.16,17.222l29.625,171.856a14.915,14.915,0,0,0,17.222,12.16l239.918-41.356a14.929,14.929,0,0,0,12.157-17.226L717.27,1497.031a14.913,14.913,0,0,0-14.661-12.379Zm32.8,205.4h0Z"/></g><path fill="#080717" d="M553.591,1617.4l-8.965-52.011a9.888,9.888,0,0,1,13.161-10.958l49.525,18.242,49.526,18.241a9.888,9.888,0,0,1,2.909,16.877l-40.56,33.769-40.56,33.77a9.888,9.888,0,0,1-16.071-5.919Z"/><g><path fill="#fff" d="M1475.208,1063.2c150.089,30.432,202.638,103.415,218.817,130.008,14.771,24.279,24.359,51.2,39.689,94.246,24.1,67.67,36.035,122.932,44.25,164.692,27.577,140.175,43.61,282.551,50.239,346.351H1617.931Z"/><path fill="#fff" d="M1337.665,1071.353c-36.384,1.98-91.349,10.6-141.611,46.422-44.9,32-60.71,68.454-125.764,183.656-33.534,59.385-62.4,108.356-83.177,143.065q-46.727-145.653-93.45-291.306a111.9,111.9,0,0,0,4.949-37.411c-1.331-32.606,43.917-61.884,36.6-78.52s-28.831-9.981-43.361,0-26.508,14.657-26.508-13.631,12.642-94.833,0-99.49-26.617,86.5-34.6,76.523-15.97-94.489-32.606-92.493-2,89.166-7.319,93.824-38.595-79.85-51.9-74.527,15.3,98.482,11.312,106.467-49.907-45.81-56.56-40.205,31.94,62.829,37.263,91.442c4.566,24.543,14.047,91.137,43.1,108.343a1427.5,1427.5,0,0,0,38.747,249.654c36.251,146.472,55.443,224.02,111.79,245.54,94.5,36.09,232.979-108.519,293.45-191.641C1332.4,1339.838,1341.133,1164.188,1337.665,1071.353Z"/><path fill="#090817" d="M956.418,1698.379a92.5,92.5,0,0,1-33.281-5.934c-58.3-22.265-78.172-102.554-114.242-248.308a1434.927,1434.927,0,0,1-38.723-248.332c-26.856-18.039-36.637-73.149-41.945-103.055-.45-2.535-.86-4.836-1.235-6.852-2.539-13.644-13.18-34.5-22.57-52.9-13.6-26.648-18.895-37.648-13.336-42.328,5.758-4.859,15.3,3.441,34.609,21.152,6.637,6.09,16.1,14.77,20.961,17.832-.5-6.035-3.5-20.316-5.992-32.168-10.254-48.808-12.969-69.839-3.238-73.734,10.445-4.184,21.937,15.922,39.6,49.5,3.657,6.945,7.9,15.016,11.032,20.188-.012-5.7-.489-14.063-.9-21.289-2.277-40.008-2.777-66.356,10.5-67.95,13.1-1.593,19.5,23.59,27.707,62.164,2.3,10.8,4.844,22.762,6.977,28.637,2.609-5.723,6.2-18.164,8.969-27.762,7.656-26.539,12.816-42.91,19.859-46.476a6.805,6.805,0,0,1,5.555-.375c10.992,4.051,9.132,28.672,5.191,68.5-1.324,13.367-2.574,26-2.574,34.742,0,13.445,2.828,16.387,4.043,17.023,3.64,1.95,13.1-4.558,16.2-6.691,4.9-3.363,21.988-14.023,36.336-9.934a19.863,19.863,0,0,1,12.953,11.621c4.367,9.918-4.367,21.364-14.48,34.614-10.516,13.777-22.434,29.394-21.782,45.351a115.17,115.17,0,0,1-4.754,37.543l90.364,281.692c26.578-44.547,52.992-90.055,78.586-135.383,9.34-16.535,17.66-31.445,25.2-44.953,45.516-81.551,62.543-112.067,101.73-140,39.653-28.258,88-44.125,143.711-47.157a3.946,3.946,0,0,1,2.914,1.039,3.988,3.988,0,0,1,1.3,2.805c4.262,113.988-13.172,280.809-120.414,428.215C1167.41,1573.422,1050.344,1698.379,956.418,1698.379ZM697.219,998.3c1.609,6.129,8.566,19.765,14.328,31.058,9.637,18.887,20.558,40.293,23.312,55.079.379,2.035.789,4.355,1.246,6.917,4.829,27.219,14.883,83.864,39.961,98.715a4,4,0,0,1,1.954,3.18A1426.946,1426.946,0,0,0,816.656,1442.2c35.426,143.149,54.942,222,109.332,242.766,86.364,32.988,220.008-95.715,288.789-190.254,104.621-143.809,122.676-306.524,119.032-419.125-52.454,3.484-98,18.762-135.434,45.441-37.719,26.887-54.508,56.973-99.387,137.379-7.543,13.516-15.871,28.442-25.215,44.988-27.085,47.965-55.085,96.129-83.226,143.153a4,4,0,0,1-7.242-.832l-93.45-291.305a4.033,4.033,0,0,1-.015-2.4,107.335,107.335,0,0,0,4.777-36.071c-.769-18.843,12.641-36.414,23.414-50.535,8.219-10.769,15.981-20.941,13.52-26.539a11.82,11.82,0,0,0-7.821-7.144c-7.222-2.059-18.828,1.418-29.617,8.832-8.578,5.894-17.48,10.843-24.457,7.179-5.672-2.984-8.316-10.644-8.316-24.1,0-9.141,1.269-21.961,2.613-35.531,1.672-16.922,5.539-55.95.442-59.961-4.446,3.351-11.54,27.933-15.4,41.316-7.562,26.215-10.469,34.777-15.934,35.867a5.482,5.482,0,0,1-5.449-2.16c-3.375-4.222-5.9-15.523-10.074-35.137-3.269-15.355-11.894-55.894-18.727-55.894a1.74,1.74,0,0,0-.2.012c-6.812.816-4.3,45.023-3.468,59.55,1.4,24.575,1.41,30.6-1.7,33.313a4.749,4.749,0,0,1-4.019,1.09c-4.184-.778-7.43-6.211-19.485-29.125-7.632-14.508-23.4-44.485-29.519-45.711-4.328,5.551,4.027,45.336,8.07,64.582,5.535,26.344,7.293,35.914,5.309,39.883a5.412,5.412,0,0,1-3.879,2.922c-5.2.988-12.25-4.981-29.633-20.93C712.969,1011,702.492,1001.391,697.219,998.3Z"/><path fill="#fff" d="M1651.2,1247.532c-9.919-44.829-23.365-96.8-67.873-135.745-18.956-16.585-41.682-29.144-66.545-37.852a37.748,37.748,0,0,1-25.283-35.625V881.94H1362.127v157.173a33.673,33.673,0,0,1-24.461,32.24c-42.587,12.422-81.415,34.061-109.671,64.389-35.461,38.059-45.509,80.328-59.888,243.543-8.8,99.844-18.274,234.289-22.625,395.26h545.645C1702.926,1538.535,1676.508,1361.905,1651.2,1247.532Z"/><path fill="#090817" d="M1691.129,1778.543H1145.48a4,4,0,0,1-4-4.109c3.586-132.547,11.2-265.61,22.641-395.5,14.609-165.817,24.859-207.188,60.949-245.918,27.606-29.633,66.153-52.286,111.473-65.5a29.508,29.508,0,0,0,21.586-28.4V881.941a4,4,0,0,1,4-4H1491.5a4,4,0,0,1,4,4v156.368a33.794,33.794,0,0,0,22.605,31.851c26.25,9.195,49.079,22.188,67.856,38.613,44.207,38.676,58.4,89.329,69.148,137.895h0c35.946,162.473,49.411,340.141,40.016,528.074A4,4,0,0,1,1691.129,1778.543Zm-541.539-8h537.73c8.989-185.813-4.472-361.469-40.023-522.148h0c-10.461-47.266-24.223-96.52-66.6-133.6-18-15.754-39.953-28.231-65.234-37.09a41.8,41.8,0,0,1-27.961-39.4V885.941H1366.129v153.172a37.441,37.441,0,0,1-27.344,36.078c-43.937,12.817-81.238,34.7-107.863,63.278-34.527,37.058-44.426,77.629-58.832,241.168C1160.785,1508.023,1153.215,1639.512,1149.59,1770.543Z"/><path fill="#fff" d="M1640.534,791.193c0-93.122-57.682-172.719-139.239-205.164-49.826-54.3-112.507-86.775-186.321-53.992-46.849,20.808-81.509,61.938-96.559,110.942-10.186,33.167-22.035,78.118-28.607,125.008a21.434,21.434,0,1,0-5.049,42.259c.263,0,.507-.067.766-.077-3.235,54.4,3.3,107.49,30.288,144.157,79.667,108.249,364.594,101.989,417.576-107.277.279-1.065.517-2.145.779-3.215.352-1.468.735-2.907,1.064-4.395,0,0-.022-.072-.029-.092A221.321,221.321,0,0,0,1640.534,791.193Z"/><path fill="#090817" d="M1386.746,1027.582c-73.336,0-141.457-26.457-174.156-70.887-23.906-32.484-34.426-80.472-31.281-142.683a25.46,25.46,0,0,1,3.449-50.684c.551,0,1.105.02,1.668.067,6.937-47.207,19.074-91.993,28.164-121.59,15.722-51.188,51.719-92.532,98.758-113.426,66-29.309,130.015-11.047,190.277,54.277,85.633,34.453,140.91,116.207,140.91,208.535a226.076,226.076,0,0,1-5.312,48.508,4.372,4.372,0,0,1-.086.6c-.219.992-.461,1.961-.7,2.933l-.668,2.743c-.165.7-.329,1.394-.508,2.086-23.071,91.113-93.137,154.507-192.231,173.9A304.075,304.075,0,0,1,1386.746,1027.582ZM1185.527,806.168a4,4,0,0,1,3.993,4.238c-3.708,62.278,6.222,109.9,29.515,141.547,39.539,53.727,133.942,79.863,224.461,62.152,95.93-18.769,163.731-80.019,186.016-168.035.172-.656.32-1.293.472-1.929l.688-2.844c.168-.676.336-1.348.5-2.031a6.275,6.275,0,0,1,.129-.789,217.837,217.837,0,0,0,5.238-47.286c0-89.336-53.664-168.406-136.715-201.445a3.9,3.9,0,0,1-1.468-1.012c-57.864-63.054-119.016-80.914-181.754-53.043-44.926,19.954-79.317,59.489-94.36,108.465-9.261,30.164-21.718,76.227-28.468,124.387a4,4,0,0,1-4.9,3.332,17.434,17.434,0,1,0-4.109,34.371c.129-.019.461-.066.59-.074C1185.41,806.168,1185.469,806.168,1185.527,806.168Z"/><path fill="#080717" d="M1230.657,608.729c-2.317-18.517-11.4-104.653,39.925-146.368,7.614-6.189,35.755-28.687,57.11-18.123,18.748,9.275,18.748,40.723,18.748,40.723s256.81,10.647,294.094,79.85,0,102.475,0,102.475,65.233,20.968,42.608,108.3S1560.7,1006,1468.876,1023.628s-125.1,10.97-127.76-58.234S1374.387,855.6,1374.387,855.6s56.146,2,77.647-30.609-17.1-61.219-39.387-60.554-32.271,27.948-43.584,12.644c-13.978-18.911,11.872-53.451,3.661-88.5-4.323-18.452-16.783-29.474-31.608-42.587C1300.367,609.948,1249.264,608.366,1230.657,608.729Z"/><path fill="#6556ff" d="M1338.121,1066.871s94.49,20.628,166.356-6.321c0,0,102.807,9.315,157.372,69.869s115.783,243.543,126.429,366.646l-94.253,26.617,7.083,274.818H1124.987l23.49-216.594-114.369-219.589a1864.866,1864.866,0,0,1,83.427-170.68c33.594-60.6,48.025-78.461,67.872-93.159C1238.867,1058.893,1304.5,1062.33,1338.121,1066.871Z"/><path fill="#080717" d="M1828.2,1802.5a4,4,0,0,1-3.961-3.477l-39.926-301.433a4,4,0,0,1,7.93-1.047l39.926,301.434a4,4,0,0,1-3.441,4.488A4.118,4.118,0,0,1,1828.2,1802.5Z"/><path fill="#fff" d="M1694.02,1527.68a4,4,0,0,1-3.977-3.594c-12.9-126.8-41.981-288.859-42.273-290.481a4,4,0,1,1,7.875-1.421c.293,1.625,29.421,163.984,42.359,291.089a4,4,0,0,1-3.574,4.387C1694.289,1527.672,1694.152,1527.68,1694.02,1527.68Z"/><path fill="#080717" d="M950.516,1531a4,4,0,0,1-4-3.934c-.028-1.746-.254-43.308,37.629-85.254a4,4,0,1,1,5.937,5.36c-35.656,39.484-35.57,79.375-35.566,79.773a4.006,4.006,0,0,1-3.942,4.055Z"/><path fill="#fff" d="M1148.477,1585.906a4,4,0,0,1-2.864-6.793c1.043-1.07,104.782-108.183,150.516-226.172a4,4,0,0,1,7.461,2.891c-46.34,119.539-151.195,227.789-152.25,228.867A3.985,3.985,0,0,1,1148.477,1585.906Z"/><path fill="#fff" d="M1429.621,1015.973a3.591,3.591,0,0,1-.457-.028c-25.312-2.871-43.105-20.785-51.453-51.8a160.053,160.053,0,0,1-4.988-45.214,4,4,0,0,1,7.988.429c-.047.825-3.789,82.6,49.359,88.637a4,4,0,0,1-.449,7.973Z"/><path fill="#fff" d="M1451.742,990.539c-8.363,0-15.484-2.527-21.238-7.551-15-13.1-14.766-38.383-14.75-39.453a3.939,3.939,0,0,1,4.058-3.93,4,4,0,0,1,3.942,4.055c0,.227-.172,22.688,12.031,33.317,5.453,4.757,12.793,6.464,21.844,5.093a4,4,0,1,1,1.2,7.907A46.923,46.923,0,0,1,1451.742,990.539Z"/><path fill="#fff" d="M1620.254,641.676a3.957,3.957,0,0,1-1.91-.488,4,4,0,0,1-1.6-5.426c21.91-40.168-31.109-76.246-31.648-76.606a4,4,0,0,1,4.441-6.656c.6.4,59.645,40.5,34.231,87.09A4,4,0,0,1,1620.254,641.676Z"/><path fill="#fff" d="M1657.188,792.785a4,4,0,0,1-3.579-5.777c11.692-23.594,14.348-42.555,7.9-56.36-6.762-14.468-21.746-18.222-21.895-18.261a4,4,0,0,1,1.832-7.785c.762.175,18.778,4.566,27.25,22.535,7.61,16.133,4.942,37.468-7.918,63.425A4.006,4.006,0,0,1,1657.188,792.785Z"/><path fill="#fff" d="M1262.934,534.473a3.913,3.913,0,0,1-.481-.028,4,4,0,0,1-3.5-4.449c.215-1.789,5.57-43.922,32.309-55.684,7.746-3.406,12.554-1.488,15.226.731,8.223,6.809,6.637,25.6,4.789,36.875,14.246-6.063,48.008-17.406,92.285-12.434a4,4,0,0,1-.89,7.954c-55.426-6.247-94.516,14.753-94.906,14.964a4,4,0,0,1-5.821-4.406c2.918-12.672,4.672-32.461-.558-36.793-1.371-1.133-3.688-.98-6.907.43-22.605,9.949-27.535,48.926-27.582,49.316A4,4,0,0,1,1262.934,534.473Z"/><path fill="#080717" d="M1387.7,844.961a4,4,0,0,1,0-8,21.8,21.8,0,0,0,15.86-6.649,17.9,17.9,0,0,0,5.277-12.839c-.285-7.707-6.418-14.8-14.922-17.25a4,4,0,0,1,.629-7.817l38.594-4.66a4,4,0,0,1,.961,7.945l-26.371,3.184a24.782,24.782,0,0,1,1.593,36.988,30.161,30.161,0,0,1-21.613,9.1Z"/><path fill="#080717" d="M1318.621,732.129a3.979,3.979,0,0,1-2.641-1c-39.234-34.5-82-17-82.425-16.824a4,4,0,1,1-3.117-7.368c.476-.2,47.867-19.609,90.824,18.184a4,4,0,0,1-2.641,7Z"/><circle cx="1275.307" cy="771.459" r="22.239" fill="#080717"/><ellipse cx="1315.152" cy="846.395" fill="#6556ff" rx="18.435" ry="28.242" transform="rotate(-86.841 1315.153 846.394)"/><path fill="#080717" d="M1252.3,935.219c-.86,0-1.711-.039-2.559-.121-15.9-1.508-29.738-16.934-32.906-36.68a4,4,0,0,1,3.234-4.566l66-12a3.948,3.948,0,0,1,3.157.765,3.991,3.991,0,0,1,1.546,2.863c1.137,14.782-3.949,28.895-13.957,38.727C1269.6,931.293,1260.793,935.219,1252.3,935.219Zm-26.774-34.231c3.582,14.133,13.832,25.09,24.973,26.149,6.82.644,14.547-2.578,20.711-8.641a40.174,40.174,0,0,0,11.707-27.941Z"/></g></svg> 